<svg height="448pt" viewBox="-16 0 448 448" width="448pt" xmlns="http://www.w3.org/2000/svg"><path d="m392 400h-24v16h24v8c-.003906 4.414062-3.585938 7.996094-8 8h-240c-4.414062-.003906-7.996094-3.585938-8-8v-8h24v-16h-24c-8.832031.007812-15.992188 7.167969-16 16v8c.015625 13.25 10.75 23.984375 24 24h240c13.25-.015625 23.984375-10.75 24-24v-8c-.007812-8.832031-7.167969-15.992188-16-16zm0 0"/><path d="m168 264v96c.035156 30.914062 25.085938 55.964844 56 56h80c27.808594-.046875 51.371094-20.480469 55.363281-48h12.636719c24.300781 0 44-19.699219 44-44s-19.699219-44-44-44h-12v-16c-.007812-8.832031-7.167969-15.992188-16-16h-160c-8.832031.007812-15.992188 7.167969-16 16zm204 32c15.464844 0 28 12.535156 28 28s-12.535156 28-28 28h-12v-56zm-28-16v80c-.027344 22.082031-17.917969 39.972656-40 40h-80c-22.082031-.027344-39.972656-17.917969-40-40v-96h160zm0 0"/><path d="m16 424v-267.410156c0-1.5.421875-2.96875 1.21875-4.242188l20.214844-32.347656h157.132812l20.214844 32.351562c.796875 1.269532 1.21875 2.738282 1.21875 4.238282v75.410156h16v-75.410156c0-4.496094-1.261719-8.90625-3.648438-12.71875l-36.351562-58.164063v-37.707031h8c8.832031-.007812 15.992188-7.167969 16-16v-16c-.007812-8.832031-7.167969-15.9921875-16-16h-168c-8.832031.0078125-15.992188 7.167969-16 16v16c.007812 8.832031 7.167969 15.992188 16 16h8v37.707031l-36.351562 58.160157c-2.386719 3.816406-3.648438 8.222656-3.648438 12.722656v267.410156c.015625 13.25 10.75 23.984375 24 24h80v-16h-80c-4.414062-.003906-7.996094-3.585938-8-8zm16-392v-16h168v16h-8c-8.832031.007812-15.992188 7.167969-16 16v42.292969l8.566406 13.707031h-137.132812l8.566406-13.707031v-42.292969c-.007812-8.832031-7.167969-15.992188-16-16zm0 0"/></svg>