<?xml version="1.0" encoding="utf-8"?>
<!-- Generator: Adobe Illustrator 23.1.0, SVG Export Plug-In . SVG Version: 6.00 Build 0)  -->
<svg version="1.1" id="Capa_1" xmlns="http://www.w3.org/2000/svg" xmlns:xlink="http://www.w3.org/1999/xlink" x="0px" y="0px"
	 viewBox="0 0 512 512" style="enable-background:new 0 0 512 512;" xml:space="preserve">
<style type="text/css">
	.st0{fill:#EA2027;}
</style>
<g>
	<path class="st0" d="M496.4,78.9V0H15.6v78.9l18.6,51.9v250.4l-18.6,51.9V512h480.8v-78.9l-18.6-51.9V130.8L496.4,78.9z
		 M460.1,420.7H51.9l12.3-34.3V125.6L51.9,91.3h408.2l-12.3,34.3v260.9L460.1,420.7z M466.4,30v31.3H45.6V30H466.4z M45.6,482v-31.3
		h420.8V482H45.6z"/>
	<path class="st0" d="M320.5,236.1l51,13.7l7.8-29l-22.1-5.9l18.2-10.5l-15-26l-18.2,10.5l5.9-22.1l-29-7.8l-13.7,51L271,230v-39.8
		l37.4-37.4l-21.2-21.2L271,147.8v-21h-30v21l-16.1-16.1l-21.2,21.2l37.4,37.4V230l-34.5-19.9l-13.7-51l-29,7.8l5.9,22.1l-18.2-10.5
		l-15,26l18.2,10.5l-22.1,5.9l7.8,29l51-13.7L226,256l-34.5,19.9l-51-13.7l-7.8,29l22.1,5.9l-18.2,10.5l15,26l18.2-10.5l-5.9,22.1
		l29,7.8l13.7-51L241,282v39.8l-37.4,37.4l21.2,21.2l16.1-16.1v21h30v-21l16.1,16.1l21.2-21.2L271,321.8V282l34.5,19.9l13.7,51
		l29-7.8l-5.9-22.1l18.2,10.5l15-26l-18.2-10.5l22.1-5.9l-7.8-29l-51,13.7L286,256L320.5,236.1z"/>
</g>
</svg>
