<?xml version="1.0" ?><svg id="Layer_1" style="enable-background:new 0 0 389.01 389.01;" version="1.1" viewBox="0 0 389.01 389.01" xml:space="preserve" xmlns="http://www.w3.org/2000/svg" xmlns:xlink="http://www.w3.org/1999/xlink"><path d="M389.01,160.218c0-0.404-0.061-0.792-0.151-1.168v-43.149c0.001-0.306-0.035-0.611-0.091-0.913  c-0.012-0.068-0.025-0.135-0.04-0.201c-0.064-0.281-0.145-0.559-0.257-0.829c-0.011-0.027-0.027-0.052-0.039-0.078  c-0.074-0.168-0.151-0.335-0.245-0.496l-33.433-57.785V45.03c0-7.556-6.147-13.703-13.703-13.703H234.523  c-7.556,0-13.702,6.147-13.702,13.703v10.581l-33.426,57.773c-0.089,0.155-0.163,0.315-0.235,0.477  c-0.016,0.035-0.036,0.068-0.051,0.103c-0.11,0.265-0.19,0.538-0.253,0.814c-0.017,0.073-0.03,0.146-0.044,0.22  c-0.053,0.294-0.089,0.591-0.09,0.889v0.001v44.331v77.727H166.18v-42.748c0-11.393-4.364-22.174-12.29-30.357  c-6.082-6.282-8.796-11.323-9.358-17.724h0.025c2.762,0,5-2.239,5-5v-19.07c0-6.653-5.413-12.066-12.066-12.066h-35.486  c-6.653,0-12.066,5.413-12.066,12.066v19.07c0,2.761,2.238,5,5,5h0.49c-0.561,6.401-3.275,11.442-9.359,17.723  c-7.926,8.184-12.29,18.965-12.29,30.358v42.748H54.575c-19.688,0-35.704,16.017-35.704,35.704v52.096h-0.349  C8.31,325.745,0,334.055,0,344.268v8.312c0,2.761,2.238,5,5,5h252.406v0.102h126.452c2.762,0,5-2.239,5-5V309.3  c0.091-0.376,0.151-0.764,0.151-1.168V160.218z M196.724,120.888H310.65v34.331H196.724V120.888z M349.755,66.926l25.435,43.962  h-50.87L349.755,66.926z M320.65,165.218h58.208v137.914H320.65V165.218z M320.65,155.218v-34.331h58.208v34.331H320.65z   M230.821,45.03c0-2.042,1.661-3.703,3.702-3.703h106.528c2.042,0,3.703,1.661,3.703,3.703v6.923H230.821V45.03z M228.705,61.954  h112.373l-28.312,48.934H200.394L228.705,61.954z M196.724,165.218H310.65v137.914h-64.151v-28.429  c2.362,0.416,4.763,0.632,7.188,0.632c22.695,0,41.16-18.464,41.16-41.16c0-22.696-18.465-41.16-41.16-41.16  s-41.16,18.464-41.16,41.16c0,1.281,0.081,2.555,0.198,3.824c-0.64-0.034-1.283-0.054-1.931-0.054h-14.071V165.218z   M210.795,247.945c14.173,0,25.704,11.531,25.704,25.704v52.096h-64.138v-52.096c0-10.088-4.212-19.204-10.961-25.704H210.795z   M222.527,234.175c0-17.182,13.979-31.16,31.16-31.16s31.16,13.979,31.16,31.16s-13.979,31.16-31.16,31.16  c-2.894,0-5.736-0.415-8.483-1.191c-3.072-11.106-11.38-20.059-22.095-24.008C222.731,238.18,222.527,236.186,222.527,234.175z   M99.938,123.046c0-1.14,0.927-2.066,2.066-2.066h35.486c1.14,0,2.066,0.927,2.066,2.066v14.07H99.938V123.046z M93.253,171.796  c5.927-6.121,11.437-13.357,12.194-24.68h29.066c0.757,11.323,6.267,18.559,12.194,24.68c6.108,6.309,9.473,14.62,9.473,23.401  v42.748h-19.522H83.779v-42.748C83.779,186.415,87.144,178.104,93.253,171.796z M28.871,273.649  c0-14.173,11.531-25.704,25.704-25.704h22.069h60.013c14.173,0,25.704,11.531,25.704,25.704v52.096H28.871V273.649z   M252.406,347.581H10v-3.312c0-4.7,3.823-8.523,8.522-8.523h225.361c4.699,0,8.522,3.823,8.522,8.523V347.581z M246.499,325.952  v-12.82h64.151v34.55h-48.244v-3.414C262.406,334.945,255.475,327.229,246.499,325.952z M320.65,347.682v-34.55h58.208v34.55H320.65  z"/><g/><g/><g/><g/><g/><g/><g/><g/><g/><g/><g/><g/><g/><g/><g/></svg>