<svg height="480pt" viewBox="0 0 480 480.0001" width="480pt" xmlns="http://www.w3.org/2000/svg"><path d="m471.988281 248c4.417969 0 8-3.582031 8-8-.027343-22.082031-17.917969-39.972656-40-40h-184c-22.082031.027344-39.972656 17.917969-40 40 0 4.417969 3.582031 8 8 8h24v16.800781c-18.613281 3.828125-31.976562 20.199219-32 39.199219v104c.027344 22.082031 17.917969 39.972656 40 40h184c22.082031-.027344 39.972657-17.917969 40-40v-104c-.027343-22.082031-17.917969-39.972656-40-40v-16zm-240 64h128v88h-128zm208 120h-184c-10.132812-.042969-19.148437-6.445312-22.527343-16h229.054687c-3.378906 9.554688-12.394531 15.957031-22.527344 16zm-64-32v-88h56v88zm88 0h-16v-88h16zm-1.472656-104h-229.054687c3.378906-9.554688 12.394531-15.957031 22.527343-16h184c10.132813.042969 19.148438 6.445312 22.527344 16zm-198.527344-32v-16h160v16zm-30.632812-32c3.402343-9.582031 12.464843-15.988281 22.632812-16h184c10.167969.011719 19.230469 6.417969 22.632813 16zm0 0"/><path d="m16.402344 46.65625 23.585937 361.863281c.273438 4.214844 3.777344 7.488281 8 7.480469v16h-8c-2.304687 0-4.496093.996094-6.015625 2.726562-1.515625 1.734376-2.214844 4.039063-1.914062 6.320313.859375 6.503906 6.226562 38.953125 27.265625 38.953125h105.328125c21.039062 0 26.398437-32.449219 27.265625-38.953125.300781-2.28125-.398438-4.585937-1.914063-6.320313-1.519531-1.730468-3.710937-2.726562-6.015625-2.726562h-8v-16c4.222657.007812 7.726563-3.265625 8-7.480469l23.601563-361.863281c11.160156-3.699219 17.980468-14.960938 16.089844-26.570312-1.890626-11.605469-11.933594-20.1210942-23.691407-20.085938h-176c-11.757812-.0273438-21.792969 8.492188-23.679687 20.09375-1.886719 11.605469 4.9375 22.863281 16.09375 26.5625zm148.25 417.34375h-105.328125c-3.359375 0-7.160157-7.433594-9.527344-16h124.375c-2.375 8.496094-6.183594 16-9.519531 16zm-108.664063-64h-.503906l-1.039063-16h115.085938l-1.039062 16zm104 16v16h-96v-16zm10.589844-48h-117.183594l-6.253906-96h129.695313zm7.304687-112h-131.789062l-13.570312-208h23.464843v40c0 4.417969 3.582031 8 8 8s8-3.582031 8-8v-40h16v24c0 4.417969 3.582031 8 8 8s8-3.582031 8-8v-24h87.464844zm-153.894531-240h176c4.417969 0 8 3.582031 8 8s-3.582031 8-8 8h-176c-4.417969 0-8-3.582031-8-8s3.582031-8 8-8zm0 0"/><path d="m55.988281 184c0 30.929688 25.070313 56 56 56 30.925781 0 56-25.070312 56-56s-25.074219-56-56-56c-30.914062.035156-55.964843 25.085938-56 56zm56-40c22.089844 0 40 17.910156 40 40s-17.910156 40-40 40c-22.089843 0-40-17.910156-40-40 .027344-22.082031 17.917969-39.972656 40-40zm0 0"/><path d="m255.988281 344h40c4.417969 0 8-3.582031 8-8s-3.582031-8-8-8h-40c-4.417969 0-8 3.582031-8 8s3.582031 8 8 8zm0 0"/><path d="m335.988281 360h-80c-4.417969 0-8 3.582031-8 8s3.582031 8 8 8h80c4.417969 0 8-3.582031 8-8s-3.582031-8-8-8zm0 0"/><path d="m319.988281 184c17.671875 0 32-14.328125 32-32s-14.328125-32-32-32-32 14.328125-32 32 14.328125 32 32 32zm0-48c8.835938 0 16 7.164062 16 16s-7.164062 16-16 16c-8.835937 0-16-7.164062-16-16s7.164063-16 16-16zm0 0"/><path d="m391.988281 136c13.253907 0 24-10.746094 24-24s-10.746093-24-24-24c-13.253906 0-24 10.746094-24 24s10.746094 24 24 24zm0-32c4.417969 0 8 3.582031 8 8s-3.582031 8-8 8-8-3.582031-8-8 3.582031-8 8-8zm0 0"/></svg>