<?xml version="1.0" encoding="utf-8"?>
<!-- Generator: Adobe Illustrator 23.1.0, SVG Export Plug-In . SVG Version: 6.00 Build 0)  -->
<svg version="1.1" id="Layer_1" xmlns="http://www.w3.org/2000/svg" xmlns:xlink="http://www.w3.org/1999/xlink" x="0px" y="0px"
	 viewBox="0 0 512 512" style="enable-background:new 0 0 512 512;" xml:space="preserve">
<style type="text/css">
	.st0{fill:#FFFFFF;}
</style>
<path class="st0" d="M459.6,116.9H353.4c-2.6-2.6-4.8-5.9-6.8-10c-12.9-27.2-26.8-54-40.8-80.7c-3.8-7.2-7.5-18.2-18.5-13.2
	c-12.2,5.5-7,15.7-2.7,24.3c11.6,23,23.2,46.1,35.4,68.8c2.4,4.5,3.8,8,4,10.7H188.4c0-3.3,1.7-7.6,4.5-12.7
	c10.9-20.5,21.7-41.1,31.5-62.1c4.2-8.9,17.3-20.7,1.4-28.4c-14.8-7.2-17,9.6-22.7,18.2c-1.4,2.1-2.3,4.6-3.5,6.9
	c-14.1,26.6-22.2,61.2-43.3,78.2H56.2c-19,0-34.6,15.6-34.6,34.6v5c0,15.7,10.6,29,25,33.2c9.4,9.4,9.8,20.9,12.3,32.7
	c6.9,32.8,11.1,66.3,19.7,98.6c14.2,53.2,19.3,105.8,1.4,159.1c-1.7,5.2-3.7,11.5,1.6,18.8c30.8-23.4,62.1-45.7,91.7-70.3
	c15.1-12.5,30.4-16.7,49.4-16.3c46.5,1,93,0.5,139.5,0.3c46.4-0.3,62-12.9,71-57.6c9.4-47.2,18.3-94.6,27.3-141.9
	c1.8-9.7,3.4-17.8,11.6-24.5c12.9-5,22.1-17.6,22.1-32.2v-5C494.2,132.5,478.6,116.9,459.6,116.9z M362.1,343.8
	c-66,0.2-132.1,0.2-198.1,0c-8.1,0-19.6,1.4-19.2-10.8c0.4-12.1,11.9-9.8,20.1-9.9c32.6-0.2,65.2-0.1,97.8-0.1
	c32.6,0,65.2-0.1,97.8,0.1c8.1,0.1,19.3-2.2,20.3,9.9C381.8,346.7,369.9,343.8,362.1,343.8z M387,290.9c-85.1,0.1-170.1,0.1-255.2,0
	c-8.4,0-19.6,1.1-18.8-11.4c0.8-12.6,12.5-9.1,20.4-9.2c43-0.3,86-0.1,128.9-0.1c41.3,0,82.5-0.1,123.8,0.2
	c7.9,0.1,19.6-3.3,20.1,9.5C406.6,292.2,395.3,290.9,387,290.9z M424.2,227.2c-0.4,11.6-12.8,8.8-20.9,8.8
	c-94.7,0.1-189.3,0.2-284-0.1c-8,0-20.8,3.2-21.2-8.3c-0.4-14.4,13.7-9.6,22-9.7c46.5-0.5,92.9-0.2,139.4-0.2
	c48.2,0,96.4-0.1,144.6,0.1C412,217.9,424.6,215,424.2,227.2z"/>
</svg>
